<?xml version="1.0" encoding="UTF-8" standalone="no"?>
<!-- Created with Inkscape (http://www.inkscape.org/) -->

<svg
   width="155.8828"
   height="180"
   viewBox="0 0 41.243988 47.625"
   version="1.1"
   id="svg5"
   xmlns="http://www.w3.org/2000/svg"
   xmlns:svg="http://www.w3.org/2000/svg">
  <defs
     id="defs2" />
  <g
     id="layer1"
     transform="translate(-352.4405,-113.77083)">
    <path
       id="path1373"
       style="fill:#fafaff;fill-opacity:1;stroke-width:6.82175;stroke-dasharray:none"
       d="m 328.08334,113.77083 -20.622,11.90625 v 0.009 l 20.622,11.89746 v 23.8125 l 20.622,-11.90625 v -23.8125 z m -0.0109,2.64583 h 0.0109 a 3.96875,2.6458333 0 0 1 3.96875,2.64429 3.96875,2.6458333 0 0 1 -3.96358,2.64738 3.96875,2.6458333 0 0 1 -3.97392,-2.64066 3.96875,2.6458333 0 0 1 3.9579,-2.65101 z m 0,6.61459 h 0.0109 a 3.96875,2.6458333 0 0 1 3.96875,2.64428 3.96875,2.6458333 0 0 1 -3.96358,2.64738 3.96875,2.6458333 0 0 1 -3.97392,-2.64066 3.96875,2.6458333 0 0 1 3.9579,-2.651 z m 0,6.61458 h 0.0109 a 3.96875,2.6458333 0 0 1 3.96875,2.64428 3.96875,2.6458333 0 0 1 -3.96358,2.64739 3.96875,2.6458333 0 0 1 -3.97392,-2.64067 3.96875,2.6458333 0 0 1 3.9579,-2.651 z m 10.58902,9.27127 a 2.6458333,3.96875 0 0 1 2.651,3.9579 v 0.0109 a 2.6458333,3.96875 0 0 1 -2.64377,3.96875 2.6458333,3.96875 0 0 1 -2.6479,-3.96358 2.6458333,3.96875 0 0 1 2.64067,-3.97392 z"
       transform="translate(44.979152)" />
    <path
       style="fill:#ffffff;fill-opacity:1;stroke-width:5.9078;stroke-dasharray:none"
       id="path2530-7"
       d="m 367.77083,149.48958 a 2.6458333,3.96875 0 0 1 -2.64404,3.96875 2.6458333,3.96875 0 0 1 -2.64762,-3.96338 2.6458333,3.96875 0 0 1 2.64046,-3.97411 2.6458333,3.96875 0 0 1 2.65119,3.95799" />
    <path
       style="fill:#ffffff;fill-opacity:1;stroke-width:5.9078;stroke-dasharray:none"
       id="path2530-7-5"
       d="m 359.83333,138.90625 a 2.6458333,3.96875 0 0 1 -2.64404,3.96875 2.6458333,3.96875 0 0 1 -2.64762,-3.96338 2.6458333,3.96875 0 0 1 2.64046,-3.97411 2.6458333,3.96875 0 0 1 2.65119,3.95799" />
  </g>
</svg>
